<svg width="128" height="128" viewBox="0 0 128 128" fill="none" xmlns="http://www.w3.org/2000/svg">
<path d="M41.9 86C42.4523 86 42.9 85.5523 42.9 85C42.9 84.4477 42.4523 84 41.9 84C41.3477 84 40.9 84.4477 40.9 85C40.9 85.5523 41.3477 86 41.9 86Z" fill="#8A4A30"/>
<path d="M45.9 90C46.4523 90 46.9 89.5523 46.9 89C46.9 88.4477 46.4523 88 45.9 88C45.3477 88 44.9 88.4477 44.9 89C44.9 89.5523 45.3477 90 45.9 90Z" fill="#8A4A30"/>
<path d="M41.9 91.8C42.3971 91.8 42.8 91.3971 42.8 90.9C42.8 90.4029 42.3971 90 41.9 90C41.4029 90 41 90.4029 41 90.9C41 91.3971 41.4029 91.8 41.9 91.8Z" fill="#8A4A30"/>
<path d="M51.9 87.8C52.3418 87.8 52.7 87.4418 52.7 87C52.7 86.5582 52.3418 86.2 51.9 86.2C51.4582 86.2 51.1 86.5582 51.1 87C51.1 87.4418 51.4582 87.8 51.9 87.8Z" fill="#8A4A30"/>
<path d="M85.9 86C86.4523 86 86.9 85.5523 86.9 85C86.9 84.4477 86.4523 84 85.9 84C85.3477 84 84.9 84.4477 84.9 85C84.9 85.5523 85.3477 86 85.9 86Z" fill="#8A4A30"/>
<path d="M81.9 90C82.4523 90 82.9 89.5523 82.9 89C82.9 88.4477 82.4523 88 81.9 88C81.3477 88 80.9 88.4477 80.9 89C80.9 89.5523 81.3477 90 81.9 90Z" fill="#8A4A30"/>
<path d="M86.9 91.8C87.3971 91.8 87.8 91.3971 87.8 90.9C87.8 90.4029 87.3971 90 86.9 90C86.4029 90 86 90.4029 86 90.9C86 91.3971 86.4029 91.8 86.9 91.8Z" fill="#8A4A30"/>
<path d="M75.9 87.8C76.3418 87.8 76.7 87.4418 76.7 87C76.7 86.5582 76.3418 86.2 75.9 86.2C75.4582 86.2 75.1 86.5582 75.1 87C75.1 87.4418 75.4582 87.8 75.9 87.8Z" fill="#8A4A30"/>
</svg>
