<svg width="128" height="128" viewBox="0 0 128 128" fill="none" xmlns="http://www.w3.org/2000/svg">
<path d="M32.6452 49.2437C30.2638 51.731 27.1253 53.9399 24.5 55.0941C18.5 57.3751 19 57.3751 20 54.8751C18.6661 55.2047 12.5 60.3751 16 55.3751C14.868 55.5674 9.11698 56.2247 8.00005 56.3751C13 55.3751 17.557 51.213 19 48.8751C22.618 43.0132 20.1322 41.2207 25.4153 37.1695C30.11 33.8727 38.1376 31.5307 42.5 33C41.9082 35.7067 34.0753 33.3127 26.7959 37.7861C26.5715 38.2282 41 34.5 38 41.5C44.9284 34.2201 40.6455 41.2309 40.5 41.5C38.0128 45.2664 35.1963 46.7816 32.6452 49.2437Z" fill="black"/>
</svg>
