<svg width="128" height="128" viewBox="0 0 128 128" fill="none" xmlns="http://www.w3.org/2000/svg">
<path d="M93.1802 9.43432C93.1802 9.43432 87.6598 18.0139 87.489 24.5295C87.4159 27.3159 90.9916 33.8236 90.9916 33.8236L93.4991 29.4516C93.4991 29.4516 92.8211 33.5729 92.8229 35.8028C92.8246 38.0327 93.3956 41.9301 93.3956 41.9301L97.1145 37.6871C97.1145 37.6871 94.582 42.9239 96.2504 45.8025C97.3385 47.6799 101.04 54.5199 101.04 54.5199C101.04 54.5199 103.927 45.9774 103.012 43.6678C102.493 42.3585 100.448 40.8969 100.448 40.8969C100.448 40.8969 102.828 38.94 103.688 37.3166C105.349 34.1814 104.449 26.3354 104.449 26.3354C104.449 26.3354 101.424 27.6223 100.073 29.081C98.7214 30.5397 97.5278 33.8058 97.5278 33.8058C97.5278 33.8058 98.8891 27.8097 98.5798 23.9262C98.1098 18.0255 93.1802 9.43432 93.1802 9.43432Z" fill="black" stroke="black"/>
</svg>
