<svg width="128" height="128" viewBox="0 0 128 128" fill="none" xmlns="http://www.w3.org/2000/svg">
<g clip-path="url(#clip0_53_690)">
<path d="M94.5 25.3519C97 27.3519 93.5279 27.5321 93 28.8519C92 31.3519 94.849 35.0345 97 38.3519C98.5793 40.7875 99.1839 43.6479 102 44.3519C104 44.8519 107 41.8519 107.5 43.3519C108.132 45.2493 112.5 42.564 112.5 40.8519C112.5 38.8519 116 38.3519 116 38.3519C116 38.3519 115.976 35.914 115 34.3519C114.024 32.7898 111 30.3519 111 30.3519C111 30.3519 113.84 30.6213 115.5 31.5C117.16 32.3787 119 34.3519 119 34.3519C116.071 31.2277 118 29.5 112 26.8519C109.35 24.2267 106 20.8519 105 19.8519C103.426 18.2777 100 18.8519 99.5 21.8519C97.5 21.3519 93.3985 24.4707 94.5 25.3519Z" fill="black" stroke="black"/>
</g>
<defs>
<clipPath id="clip0_53_690">
<rect width="128" height="128" fill="white" transform="matrix(-1 0 0 1 128 0)"/>
</clipPath>
</defs>
</svg>
