<svg width="128" height="128" viewBox="0 0 128 128" fill="none" xmlns="http://www.w3.org/2000/svg">
<g clip-path="url(#clip0_53_693)">
<g clip-path="url(#clip1_53_693)">
<path d="M110.027 52C103.055 56.2362 100.027 66.5 100.027 66.5C100.027 66.5 104.184 51.319 102.129 50.6934C99.5136 49.8973 97.527 54.5 97.527 54.5C97.527 54.5 95.87 50.5815 94.7187 47.9384C93.939 46.1482 92.8088 44.0074 91.8573 43.8381C90.9057 43.6688 91.8573 49.5 91.8573 49.5C91.8573 49.5 82.3174 35.9859 83.027 31.5C83.9283 25.802 93.527 19.5 93.527 19.5C93.527 19.5 87.648 25 89.027 31.5C90.4059 38 95.5947 36.9619 95.5947 36.9619C95.5947 36.9619 94.5203 29.972 96.527 25C98.5337 20.028 105.957 9 105.957 9C105.957 9 110.027 21.5 110.027 28.5C110.027 35.5 102.129 44.5 102.129 44.5C102.129 44.5 113.499 46 116.027 39.5C118.555 33 114.027 27 114.027 27C114.027 27 118.873 32.2905 119.027 39.5C119.18 46.7095 114.407 49.3386 110.027 52Z" fill="black" stroke="black"/>
</g>
</g>
<defs>
<clipPath id="clip0_53_693">
<rect width="128" height="128" fill="white" transform="matrix(-1 0 0 1 128 0)"/>
</clipPath>
<clipPath id="clip1_53_693">
<rect width="128" height="128" fill="white" transform="matrix(-1 0 0 1 128 0)"/>
</clipPath>
</defs>
</svg>
