<svg width="128" height="128" viewBox="0 0 128 128" fill="none" xmlns="http://www.w3.org/2000/svg">
<g clip-path="url(#clip0_53_696)">
<path d="M100.5 49.5C96.814 49.8734 92 48.5 92 48.5C92 48.5 94.327 44.6889 93 43C91.3111 40.8505 84.5 43.5 84.5 43.5C84.5 43.5 87.9315 39.3264 88.5 36.5C88.8851 34.5857 89.1834 32.1834 88.5 31.5C87.8166 30.8166 85 31 85 31C85 31 86.8509 22.7726 90 19.5C94 15.3431 108 13 108 13C108 13 99.3239 18.9616 98.25 21.5L95.5 28C95.5 28 100.009 23.4289 104.5 20.5C108.991 17.5711 120 11 120 11C120 11 114.112 21.7161 110.5 26.5C106.888 31.2839 97.5 38.5 97.5 38.5C97.5 38.5 103.571 36.4645 106.5 35C109.429 33.5355 117.5 23.5 117.5 23.5C117.5 23.5 115.5 36 111.5 42C107.5 48 105.599 48.9834 100.5 49.5Z" fill="black" stroke="black"/>
</g>
<defs>
<clipPath id="clip0_53_696">
<rect width="128" height="128" fill="white" transform="matrix(-1 0 0 1 128 0)"/>
</clipPath>
</defs>
</svg>
