<svg width="128" height="128" viewBox="0 0 128 128" fill="none" xmlns="http://www.w3.org/2000/svg">
<g clip-path="url(#clip0_53_699)">
<path d="M97.5 24.7922C93.7535 27.2063 92.5 30.2922 92.5 33.7922C92.5 40.1494 96 45.7922 96 45.7922C96 45.7922 99.6253 50.6427 100 54.2922C100.325 57.4563 98.4707 62.2922 98.4707 62.2922L101 60.2922L101.5 64.7922L103 61.2922L106.5 64.7922L105.5 60.2922C105.5 60.2922 108.352 62.5111 110.5 63.2922C112.648 64.0732 120.5 61.2922 120.5 61.2922C120.5 61.2922 111.265 61.5567 109 59.2922C107.5 57.7922 107.5 56.2922 108 53.7922C108.292 52.334 108.339 52.4505 109.5 52.2922C111.584 52.008 109.047 53.0111 111 53.7922C113.5 54.7922 121 48.2922 118.5 45.7922C117.616 44.9081 116.974 45.4491 116.5 44.2922C115.738 42.432 118.753 42.2873 119 40.2922C119.221 38.5056 118 36.7922 118 36.7922C118 36.7922 120.438 37.0851 122 36.7922C123.562 36.4993 127 33.2922 127 33.2922C127 33.2922 121 36.9038 117 33.2922C113.984 30.5692 111.552 26.2507 109 24.7922C105.5 22.7922 101.768 22.0423 97.5 24.7922Z" fill="black" stroke="black"/>
</g>
<defs>
<clipPath id="clip0_53_699">
<rect width="128" height="128" fill="white" transform="matrix(-1 0 0 1 128 0)"/>
</clipPath>
</defs>
</svg>
