<svg width="128" height="128" viewBox="0 0 128 128" fill="none" xmlns="http://www.w3.org/2000/svg">
<path d="M108 60.0351C108.514 56.4026 106 52.0351 106 52.0351C106 52.0351 109.281 46.6251 110.5 43.0351C111.944 38.7826 111.5 32.5351 111.5 32.5351C111.5 32.5351 114.17 29.2631 115 27.0351C115.917 24.5716 117 17.0351 117 17.0351C117 17.0351 113.648 24.3635 111.5 25.5351C109.352 26.7067 109 26.5351 109 26.5351C109 26.5351 111 22.0351 114 17.5351C117 13.0351 116.768 4.38065 116.5 5.03512C112 16.0351 106.5 14.0351 101.5 24.0351C101.5 24.0351 101.621 19.1475 102.5 15.5351C103.379 11.9228 109 5.53512 109 5.53512C109 5.53512 99.5503 10.9228 97.5 14.5351C95.4497 18.1475 97.1684 20.6307 95.5 24.0351C94.4511 26.1754 91.054 25.6937 91.5 28.0351C93.5 38.5351 96.611 35.2659 97 39.5351C97.4444 44.4121 93.8519 45.3575 93.5 49.5351C93.2493 52.5115 93.5 56.5351 93.5 56.5351L99.5 49.0351C99.5 49.0351 96.8017 55.9728 96 61.0351C95.1754 66.2423 95.5 75.0351 95.5 75.0351L102.5 57.5351L105 68.0351C105 68.0351 107.496 63.6001 108 60.0351Z" fill="black" stroke="black"/>
</svg>
