<svg width="128" height="128" viewBox="0 0 128 128" fill="none" xmlns="http://www.w3.org/2000/svg">
<path d="M78 15.7677C71.8873 12.7113 63.5 20.5 63.5 20.5V33.2677L67.5 31.2677L64.5 35.7677C64.5 35.7677 68.7164 34.5908 71.5 33.7677C74.9527 32.7466 77.3326 30.5003 80.5 30.7677C85.1126 31.1571 90 32.0814 90 36.7677C90 41.454 88 44.2677 89 50.2677C90 56.2677 96.0593 55.1278 96.5 60.2677C96.8439 64.2784 93.3608 66.2933 94 70.2677C94.5271 73.545 98 77.7677 98 77.7677L96.5 81.7677L99 80.2677L100 82.7677C100 82.7677 100.464 81.2117 101.5 80.7677C102.536 80.3236 103.5 80.2677 103.5 80.2677L104.5 81.7677L106 80.2677L108.5 81.7677L117 80.2677C117 80.2677 105.382 78.072 104.5 74.2677C103.459 69.7784 109.899 69.0891 111.5 64.7677C116.5 51.2677 106.128 58.5688 106 53.7677C105.853 48.2675 114.5 53.2677 112.5 41.2677C110.758 30.817 103.934 38.8139 102.5 34.2677C101.144 29.9684 108.402 27.0825 106 23.2677C97.5 9.76767 90 21.7677 78 15.7677Z" fill="black" stroke="black"/>
</svg>
