<svg width="128" height="128" viewBox="0 0 128 128" fill="none" xmlns="http://www.w3.org/2000/svg">
<path d="M91 20.3632C81.167 14.7444 64.5 17.8632 64.5 17.8632V27.8632C64.5 27.8632 72.5614 31.7986 77 35.3632C81.9567 39.344 88 47.3632 88 47.3632V35.3632C88 35.3632 91.5355 45.248 93 52.8632C94.4645 60.4785 94.8354 68.5967 94 77.3632C93.0967 86.8422 88 98.8632 88 98.8632L94.5 98.8632L97.5 95.8632L97.1875 98.8632H98.5L100 92.8632L103 97.3632L106.125 97.1132L105 94.3632L109.701 97.1132L116 96.8632L113 90.3632L122 92.8632C122 92.8632 109.5 84.3632 106.5 77.3632C102.127 67.1591 103.5 60.3632 103 44.3632C102.672 33.8586 98 24.3632 91 20.3632Z" fill="black" stroke="black"/>
</svg>
