<svg width="128" height="128" viewBox="0 0 128 128" fill="none" xmlns="http://www.w3.org/2000/svg">
<path d="M90.7304 21.3689C80.8119 15.7406 64 18.8647 64 18.8647V28.8814C64 28.8814 72.1315 32.8233 76.6087 36.3939C81.6085 40.3813 87.7043 48.414 87.7043 48.414V36.3939C87.7043 36.3939 91.2706 46.2952 92.7478 53.9231C94.225 61.5511 94.5992 69.6828 93.7565 78.4641C92.8453 87.9589 87.7043 100 87.7043 100H98.2957L99.8087 93.99L102.835 98.4975L115.443 97.4958L112.922 91.4858L122 93.99C122 93.99 109.391 85.4758 106.365 78.4641C101.954 68.2429 103.339 61.4357 102.835 45.409C102.504 34.8868 97.7913 25.3755 90.7304 21.3689Z" fill="black" stroke="black"/>
</svg>
