<svg width="128" height="128" viewBox="0 0 128 128" fill="none" xmlns="http://www.w3.org/2000/svg">
<path d="M94.4655 6.12828C94.4655 6.12828 87.4717 18.2895 87.1202 27.4601C86.9698 31.3819 91.2389 40.4807 91.2389 40.4807L94.4258 34.2885C94.4258 34.2885 93.5005 40.0984 93.4544 43.2359C93.4084 46.3735 94.0282 51.8482 94.0282 51.8482L98.7064 45.8179C98.7064 45.8179 95.4699 53.2273 97.4652 57.2507C98.7665 59.8747 103.183 69.4391 103.183 69.4391C103.183 69.4391 106.929 57.3726 105.85 54.1375C105.239 52.3038 102.748 50.2802 102.748 50.2802C102.748 50.2802 105.726 47.4883 106.822 45.1901C108.937 40.7519 107.997 29.7267 107.997 29.7267C107.997 29.7267 104.239 31.5864 102.541 33.6607C100.843 35.7351 99.3001 40.35 99.3001 40.35C99.3001 40.35 101.109 31.891 100.811 26.4318C100.359 18.1369 94.4655 6.12828 94.4655 6.12828Z" fill="black" stroke="black"/>
</svg>
