<svg width="128" height="128" viewBox="0 0 128 128" fill="none" xmlns="http://www.w3.org/2000/svg">
<path d="M61 29.9766C61.3782 34.9404 61.9419 37.7484 63.5 42.4766C64.0222 44.0611 65 46.4766 65 46.4766L66.5 40.4766L68 34.4766L69 38.9766L72.5 33.4766V36.9766C72.5 36.9766 77.5403 34.5288 81 34.4766C84.6474 34.4215 87.0452 34.8376 90 36.9766C94.1758 39.9994 95.5 48.9766 95.5 48.9766L97 43.9766C97 43.9766 97.4142 49.0476 98 51.9766C98.5858 54.9055 100.5 59.9766 100.5 59.9766C100.5 59.9766 100.402 57.5387 100.5 55.9766C100.598 54.4145 101 51.9766 101 51.9766C101 51.9766 102.121 52.4766 103 52.4766C103.879 52.4766 106 51.9766 106 51.9766C106 51.9766 104.586 51.0623 104 50.4766C103.414 49.8908 103 48.9766 103 48.9766C103 48.9766 105.438 48.9647 107 48.4766C108.562 47.9884 111.5 46.4766 111.5 46.4766C111.5 46.4766 109.225 45.819 108 44.9766C106.862 44.1944 105.5 42.4766 105.5 42.4766H116C116 42.4766 109.124 41.0268 106 38.9766C102.876 36.9263 99 31.9766 99 31.9766L108 35.4766C108 35.4766 109 35.4766 105 30.4766C101 25.4766 95.5 21.9766 95.5 21.9766L106 25.4766C106 25.4766 95.8364 17.422 91.5 15.9766C87 14.4766 83 14.9766 83 14.9766L89 9.97656C89 9.97656 84.5 7.47656 79 10.4766C75.0835 12.6128 71.5 15.9766 71.5 15.9766L72.5 10.4766C72.5 10.4766 68.4062 11.4529 65 15.9766C63.3061 18.2262 61.8583 19.2944 61 21.9766C60.0478 24.9521 60.7627 26.8614 61 29.9766Z" fill="black" stroke="black"/>
</svg>
