<svg width="128" height="128" viewBox="0 0 128 128" fill="none" xmlns="http://www.w3.org/2000/svg">
<path d="M64 28.9766C64.3782 33.9404 64.9419 36.7484 66.5 41.4766C67.0222 43.0611 68 45.4766 68 45.4766L69.5 39.4766L71 33.4766L72 37.9766L75.5 32.4766V35.9766C75.5 35.9766 80.5403 33.5288 84 33.4766C87.6474 33.4215 90.0452 33.8376 93 35.9766C97.1758 38.9994 98.5 47.9766 98.5 47.9766L100 42.9766C100 42.9766 100.414 48.0476 101 50.9766C101.586 53.9055 103.5 58.9766 103.5 58.9766C103.5 58.9766 103.402 56.5387 103.5 54.9766C103.598 53.4145 104 50.9766 104 50.9766C104 50.9766 105.121 51.4766 106 51.4766C106.879 51.4766 109 50.9766 109 50.9766C109 50.9766 107.586 50.0623 107 49.4766C106.414 48.8908 106 47.9766 106 47.9766C106 47.9766 108.438 47.9647 110 47.4766C111.562 46.9884 114.5 45.4766 114.5 45.4766C114.5 45.4766 112.225 44.819 111 43.9766C109.862 43.1944 108.5 41.4766 108.5 41.4766H119C119 41.4766 112.124 40.0268 109 37.9766C105.876 35.9263 102 30.9766 102 30.9766L111 34.4766C111 34.4766 112 34.4766 108 29.4766C104 24.4766 98.5 20.9766 98.5 20.9766L109 24.4766C109 24.4766 98.8364 16.422 94.5 14.9766C90 13.4766 86 13.9766 86 13.9766L92 8.97656C92 8.97656 87.5 6.47656 82 9.47656C78.0835 11.6128 74.5 14.9766 74.5 14.9766L75.5 9.47656C75.5 9.47656 71.4062 10.4529 68 14.9766C66.3061 17.2262 64.8583 18.2944 64 20.9766C63.0478 23.9521 63.7627 25.8614 64 28.9766Z" fill="black" stroke="black"/>
</svg>
