<svg width="128" height="128" viewBox="0 0 128 128" fill="none" xmlns="http://www.w3.org/2000/svg">
<path d="M60.5202 32.8421C60.9292 38.3285 61.5388 41.4321 63.2238 46.6579C63.7885 48.4092 64.846 51.0789 64.846 51.0789L66.4682 44.4474L68.0904 37.8158L69.1718 42.7895L72.9569 36.7105V40.5789C72.9569 40.5789 78.4078 37.8736 82.1492 37.8158C86.0937 37.7549 88.6868 38.2148 91.8823 40.5789C96.3982 43.92 97.8303 53.8421 97.8303 53.8421L99.4524 48.3158C99.4524 48.3158 99.9004 53.9207 100.534 57.1579C101.167 60.3951 103.238 66 103.238 66C103.238 66 103.132 63.3055 103.238 61.5789C103.343 59.8524 103.778 57.1579 103.778 57.1579C103.778 57.1579 104.991 57.7105 105.941 57.7105C106.891 57.7105 109.185 57.1579 109.185 57.1579C109.185 57.1579 107.656 56.1474 107.023 55.5C106.389 54.8526 105.941 53.8421 105.941 53.8421C105.941 53.8421 108.578 53.829 110.267 53.2895C111.956 52.7499 115.133 51.0789 115.133 51.0789C115.133 51.0789 112.674 50.3522 111.348 49.4211C110.118 48.5565 108.645 46.6579 108.645 46.6579H120C120 46.6579 112.564 45.0555 109.185 42.7895C105.807 40.5234 101.615 35.0526 101.615 35.0526L111.348 38.9211C111.348 38.9211 112.43 38.9211 108.104 33.3947C103.778 27.8684 97.8303 24 97.8303 24L109.185 27.8684C109.185 27.8684 98.7738 19.9462 94.0452 18.4737C90.9093 17.4972 85.9343 17.3684 85.9343 17.3684L95.6674 3C95.6674 3 85.9343 7.97368 79.9863 11.2895C75.7508 13.6506 71.8754 17.3684 71.8754 17.3684L72.9569 11.2895C72.9569 11.2895 68.5296 12.3686 64.846 17.3684C63.0141 19.8549 61.4484 21.0355 60.5202 24C59.4905 27.2888 60.2635 29.399 60.5202 32.8421Z" fill="black" stroke="black"/>
</svg>
