<svg width="128" height="128" viewBox="0 0 128 128" fill="none" xmlns="http://www.w3.org/2000/svg">
<path d="M62.5 29C62.8782 33.9638 63.4419 36.2719 65 41C65.5222 42.5845 66.5 46 66.5 46C66.5 46 68.9142 41.3431 69.5 39L71 33L72 37.5L75.5 32V35.5C75.5 35.5 80.5403 33.0523 84 33C87.6474 32.9449 90.0452 33.361 93 35.5C97.1758 38.5228 98.5 47.5 98.5 47.5L100 42.5C100 42.5 100.414 47.5711 101 50.5C101.586 53.4289 103.5 58.5 103.5 58.5C103.5 58.5 103.402 56.0621 103.5 54.5C103.598 52.9379 104 50.5 104 50.5C104 50.5 105.121 51 106 51C106.879 51 109 50.5 109 50.5C109 50.5 107.586 49.5858 107 49C106.414 48.4142 106 47.5 106 47.5C106 47.5 108.438 47.4882 110 47C111.562 46.5118 114.5 45 114.5 45C114.5 45 112.225 44.3425 111 43.5C109.862 42.7178 108.5 41 108.5 41H119C119 41 112.124 38.5503 109 36.5C105.876 34.4497 102 30.5 102 30.5H112C112 30.5 108.636 26.4526 106 24.5C103.364 22.5474 98.5 20.5 98.5 20.5H106C106 20.5 100.373 15.8323 96 14.5C93.1003 13.6165 87.5 14.5 87.5 14.5L100 7.5C100 7.5 89.6697 7.23292 84 9C79.7409 10.3275 74.5 14.5 74.5 14.5L78 4C78 4 71.4062 9.97638 68 14.5C66.3061 16.7497 64.8583 17.8179 64 20.5L63.9679 20.6004C63.0303 23.53 62.2653 25.9199 62.5 29Z" fill="black" stroke="black"/>
</svg>
