<svg width="128" height="128" viewBox="0 0 128 128" fill="none" xmlns="http://www.w3.org/2000/svg">
<g clip-path="url(#clip0_53_680)">
<path d="M66 19.6969V45.6969C66 45.6969 72.8283 44.672 77 45.6969C85.5856 47.8062 90.1316 53.0229 93.5 61.1969C97.551 71.0274 93.5 88.6969 93.5 88.6969C93.5 88.6969 95.0118 88.9633 95.5 91.6969C95.7273 92.97 94.8754 95.5514 93.9002 97.9465C92.7813 100.694 91.5 103.197 91.5 103.197C91.5 103.197 93.6213 100.88 94.5 100.197C95.3787 99.5135 97 98.6969 97 98.6969C97 98.6969 98.3047 101.744 98.5 103.697C98.6953 105.65 98 108.697 98 108.697C98 108.697 100.219 102.7 101 98.6969C101.781 94.6941 102 88.1969 102 88.1969C102 88.1969 103.84 92.1467 105.5 94.1969C107.16 96.2472 110.5 98.6969 110.5 98.6969C110.5 98.6969 107.879 92.4927 107 88.1969C106.121 83.9012 106 76.6969 106 76.6969L113 82.1969C113 82.1969 109.468 76.0046 109 72.1969C107.906 63.3031 108.739 54.305 106.25 45.6969C103.642 36.6777 98 33.1969 98 33.1969C98 33.1969 101.145 32.8922 103 32.6969C104.855 32.5017 107.5 32.1969 107.5 32.1969C107.5 32.1969 97.6863 26.9543 93 25.1969C88.3137 23.4396 83.5 23.1969 83.5 23.1969C83.5 23.1969 84.5474 21.8804 86.5 21.1969C88.4526 20.5135 94 19.6969 94 19.6969C94 19.6969 81.356 16.1376 75 17.1969C69 18.1969 66 19.6969 66 19.6969Z" fill="black" stroke="black"/>
</g>
<defs>
<clipPath id="clip0_53_680">
<rect width="128" height="128" fill="white" transform="matrix(-1 0 0 1 128 0)"/>
</clipPath>
</defs>
</svg>
