<svg width="128" height="128" viewBox="0 0 128 128" fill="none" xmlns="http://www.w3.org/2000/svg">
<g clip-path="url(#clip0_53_684)">
<path d="M92.249 33.5162C92.2865 36.1211 93.249 36.0162 94.749 38.5162C97.361 42.8696 100.644 43.7 102.249 48.5162C104.249 54.5163 104.749 59.5163 102.749 66.0163C100.749 72.5163 98.249 68.9163 98.249 70.5163C98.249 71.8866 103.017 73.1102 104.386 71.8627C103.951 72.9645 103.331 74.8828 103.749 76.0163C104.181 77.1894 105.337 80.3104 105.249 79.5163C104.749 75.0163 108.249 73.0163 108.249 73.0163C108.249 73.0163 112.082 83.0163 111.749 77.0163C111.416 71.0163 112.221 70.892 112.749 71.0163C121.249 73.0163 124.249 69.5163 120.249 70.0163C112.249 71.0163 110.845 67.0365 111.749 62.5163C112.749 57.5163 114.749 57.0163 117.749 51.5162C120.749 46.0162 121.147 40.8065 119.749 34.5162C118.749 30.0162 114.249 25.789 106.249 26.5162C100.749 27.0162 99.0396 29.3068 98.249 28.5163C97.249 27.5163 96.749 27.0162 97.749 24.5162C99.4185 20.3425 112.749 22.0163 112.749 22.0163C112.749 22.0163 99.5311 19.426 96.249 22.5162C92.6526 25.9025 92.193 29.6261 92.249 33.5162Z" fill="black"/>
<path d="M94.749 38.5162C93.249 36.0162 92.2865 36.1211 92.249 33.5162C92.193 29.6261 92.6526 25.9025 96.249 22.5162C99.5311 19.426 112.749 22.0163 112.749 22.0163C112.749 22.0163 99.4185 20.3425 97.749 24.5162C96.749 27.0162 97.249 27.5163 98.249 28.5163C99.0396 29.3068 100.749 27.0162 106.249 26.5162C114.249 25.789 118.749 30.0162 119.749 34.5162C121.147 40.8065 120.749 46.0162 117.749 51.5162C114.749 57.0162 112.749 57.5162 111.749 62.5163C110.845 67.0365 112.249 71.0163 120.249 70.0163C124.249 69.5162 121.249 73.0163 112.749 71.0163C112.221 70.892 111.416 71.0163 111.749 77.0163C112.082 83.0163 108.249 73.0163 108.249 73.0163C108.249 73.0163 104.749 75.0162 105.249 79.5163C105.337 80.3104 104.181 77.1894 103.749 76.0163C103.138 74.3571 104.749 71.0163 104.749 71.0163C104.749 73.5162 98.249 72.1163 98.249 70.5163C98.249 68.9163 100.749 72.5162 102.749 66.0163C104.749 59.5163 104.249 54.5162 102.249 48.5162C100.644 43.7 97.361 42.8696 94.749 38.5162Z" stroke="black"/>
</g>
<defs>
<clipPath id="clip0_53_684">
<rect width="128" height="128" fill="white" transform="matrix(-1 0 0 1 128 0)"/>
</clipPath>
</defs>
</svg>
