<svg width="128" height="128" viewBox="0 0 128 128" fill="none" xmlns="http://www.w3.org/2000/svg">
<g clip-path="url(#clip0_53_687)">
<path d="M89.497 25.6325C87.6969 27.1326 89.497 28.6325 85.997 28.1325C79.4866 27.2025 90.9433 44.3364 95.997 42.6325C98.4863 41.7932 95.997 37.6325 99.497 39.1325C101.371 39.9355 97.997 34.1325 97.997 34.1325L99.997 35.6325C99.997 35.6325 101.422 30.7359 102.997 29.6325C104.298 28.7212 102.247 33.2071 102.497 36.6325C102.756 40.1777 105.861 42.7686 105.497 41.1325C104.497 36.6325 110.924 40.5968 109.497 45.1325C107.975 49.9681 100.715 52.6057 102.997 57.1325C103.807 58.7401 105.997 60.6325 105.997 60.6325C105.997 60.6325 104.704 59.2064 104.997 58.1325C105.29 57.0586 107.497 55.1325 107.497 55.1325C107.497 55.1325 107.966 58.9924 108.997 61.1325C110.692 64.6508 120.997 67.1325 120.997 67.1325C120.997 67.1325 114.8 62.6137 113.997 59.6325C110.497 46.6325 122.928 44.5194 122.997 36.1325C123.059 28.5905 122.207 25.0606 116.497 20.1325C111.012 15.3981 103.289 12.6827 97.997 17.6325C95.5066 19.962 94.497 25.6325 94.497 25.6325C94.497 25.6325 90.997 24.3825 89.497 25.6325Z" fill="black" stroke="black"/>
</g>
<defs>
<clipPath id="clip0_53_687">
<rect width="128" height="128" fill="white" transform="matrix(-1 0 0 1 128 0)"/>
</clipPath>
</defs>
</svg>
