<svg width="128" height="128" viewBox="0 0 128 128" fill="none" xmlns="http://www.w3.org/2000/svg">
<path d="M108.384 47.6505C105.98 52.1359 100.811 61.9631 99.368 65.3883L101.772 54.3786L95.1605 66C95.1605 66 94.7942 64.8527 94.5594 62.9417C94.3247 61.0308 94.5594 54.3786 94.5594 54.3786C94.5594 54.3786 88.2151 50.8858 85.5434 47.6505C83.0666 44.6512 81.3359 38.4757 81.3359 38.4757C81.3359 38.4757 79.2552 43.0396 77.7295 44.5922C76.2037 46.1449 71.7188 48.8738 71.7188 48.8738C71.7188 48.8738 73.0383 45.5332 72.9209 43.9806C72.8035 42.428 71.7188 40.3107 71.7188 40.3107C71.7188 40.3107 69.2718 44.8891 67.5113 47.0388C65.7508 49.1886 62.7027 51.3204 62.7027 51.3204C62.7027 51.3204 65.3136 45.7958 65.107 43.3689C64.8352 40.1762 61.5006 36.0291 61.5006 36.0291V42.1456C61.5006 42.1456 57.9417 37.7491 54.8888 36.0291C51.8987 34.3446 42.2663 29.301 46.4738 34.8058C49.5036 38.7698 40.8669 29.4553 38.6599 34.1942C37.249 37.2238 27.8407 51.932 34.4524 48.8738C33.6373 52.4493 32.2025 56.2578 30.2449 58.6602C27.9975 61.4183 24.2342 64.165 24.2342 64.165L25.4364 61.4126L26.6385 58.6602C26.6385 58.6602 23.3557 57.4079 21.83 56.2136C20.3042 55.0193 18.8246 52.5437 18.8246 52.5437C18.8246 52.5437 21.6237 53.767 23.0321 53.767C24.4405 53.767 26.6385 53.1553 26.6385 53.1553C26.6385 53.1553 23.8539 50.4185 22.431 49.4854C16.7774 45.7781 8.00535 42.1456 8.00535 42.1456C8.00535 42.1456 14.7026 43.1156 18.2235 42.7573C21.7445 42.399 26.6385 40.3107 26.6385 40.3107C26.6385 40.3107 20.8793 39.0636 17.6225 37.2524C13.8244 35.1402 9.20749 29.9126 9.20749 29.9126C9.20749 29.9126 14.6171 33.5825 19.4257 33.5825C22.2425 33.5825 28.4417 31.7476 28.4417 31.7476C28.4417 31.7476 18.2145 28.4274 13.415 23.7961C9.35201 19.8755 5 9.72816 5 9.72816C5 9.72816 10.0217 15.2854 13.415 16.4563C18.3055 18.144 26.6385 16.4563 26.6385 16.4563L18.8246 7.8932C18.8246 7.8932 27.2501 12.8475 31.4471 13.3981C38.1136 14.2725 41.9004 9.77731 48.277 9.72816C55.1204 9.6754 65.107 13.3981 65.107 13.3981L57.2931 4.83495C57.2931 4.83495 70.9478 7.76143 77.7295 11.5631C84.5639 15.3944 92.1551 25.6311 92.1551 25.6311C92.1551 25.6311 94.4563 21.487 95.1605 17.068C95.8647 12.649 95.7616 3 95.7616 3C95.7616 3 99.3965 12.0663 100.57 17.6796C101.744 23.2929 101.772 31.7476 101.772 31.7476C101.772 31.7476 104.961 32.0822 105.98 34.1942C107.059 36.4329 105.379 40.3107 105.379 40.3107C105.379 40.3107 110.788 43.165 108.384 47.6505Z" fill="black" stroke="black"/>
</svg>
