<svg width="128" height="128" viewBox="0 0 128 128" fill="none" xmlns="http://www.w3.org/2000/svg">
<path d="M40.3129 41.6973C40.5102 41.1756 40.5768 40.2687 40.4921 39.0067C40.4087 37.7652 40.185 36.2473 39.8529 34.549C39.189 31.1538 38.1023 27.0783 36.8892 23.1273C35.6764 19.1771 34.3408 15.3635 33.1809 12.493C32.6003 11.0563 32.0676 9.86521 31.62 9.01476C31.3956 8.58851 31.1989 8.26001 31.0342 8.03209C30.9518 7.91805 30.8835 7.83845 30.8313 7.78726C30.8029 7.75942 30.7851 7.74613 30.7779 7.74094L30.7217 7.72386C30.665 7.7132 30.6383 7.72807 30.6152 7.74311C30.5536 7.7832 30.4498 7.89464 30.3361 8.1554C30.1096 8.67489 29.945 9.54499 29.8434 10.7223C29.6422 13.056 29.7033 16.371 29.8242 19.9217C29.9446 23.4574 30.1242 27.2209 30.1543 30.4058C30.1694 31.9996 30.1471 33.4602 30.0601 34.6853C29.974 35.8978 29.8222 36.9267 29.5565 37.6292C29.0385 38.9988 27.7414 40.5495 26.1942 42.0968C24.6317 43.6593 22.7488 45.2803 20.9894 46.7843C19.2198 48.297 17.5855 49.6839 16.4827 50.8024C15.9279 51.3649 15.5374 51.8302 15.33 52.1883C15.2261 52.3677 15.1881 52.4875 15.1797 52.5553C15.1775 52.5727 15.1782 52.583 15.1787 52.5884L15.2185 52.6348L15.2477 52.7012L15.3355 52.8722C15.567 53.254 15.9767 53.5216 16.6056 53.6658C17.3364 53.8331 18.3116 53.8168 19.4806 53.6255C21.8126 53.2438 24.7635 52.1938 27.7292 50.8086C30.6895 49.4258 33.6336 47.724 35.9499 46.0611C37.1083 45.2295 38.1011 44.4135 38.8582 43.6582C39.6244 42.8937 40.1127 42.2267 40.3129 41.6973Z" fill="black" stroke="black"/>
<path d="M90.1767 32.5137C90.0263 32.3131 89.8613 31.8918 89.7153 31.2239C89.5736 30.5757 89.4622 29.7591 89.3788 28.8267C89.2121 26.9635 89.1626 24.6789 89.1976 22.4362C89.2325 20.194 89.352 18.0059 89.5221 16.3388C89.6074 15.5036 89.7045 14.8091 89.8073 14.3078C89.8555 14.0726 89.9031 13.8918 89.9469 13.7634L89.9488 13.7644C90.1204 13.9708 90.327 14.3704 90.5573 14.9671C91.0103 16.1407 91.4775 17.8682 91.9528 19.7429C92.4244 21.6033 92.9023 23.6034 93.3702 25.2752C93.6045 26.1125 93.8396 26.8788 94.0738 27.5139C94.3034 28.1369 94.548 28.6776 94.8144 29.0326C95.3247 29.7124 96.2765 30.3465 97.3195 30.9205C98.3813 31.5048 99.6185 32.0694 100.764 32.5879C101.922 33.112 102.976 33.5841 103.711 33.9953C104.082 34.203 104.335 34.3755 104.476 34.5102C104.5 34.5333 104.516 34.5533 104.529 34.568L104.529 34.5708L104.515 34.6407C104.473 34.8025 104.351 34.9614 104.081 35.1118C103.762 35.2894 103.282 35.4233 102.656 35.4988C101.41 35.6492 99.7329 35.551 97.9835 35.2782C96.2398 35.0064 94.4578 34.5667 93.0109 34.0544C92.2872 33.7981 91.6572 33.5266 91.1614 33.2545C90.6543 32.9762 90.3321 32.7207 90.1767 32.5137Z" fill="black" stroke="black"/>
</svg>
