<svg width="128" height="128" viewBox="0 0 128 128" fill="none" xmlns="http://www.w3.org/2000/svg">
<path d="M34.8198 9.43432C34.8198 9.43432 40.3402 18.0139 40.511 24.5295C40.5841 27.3159 37.0084 33.8236 37.0084 33.8236L34.5009 29.4516C34.5009 29.4516 35.1789 33.5729 35.1771 35.8028C35.1754 38.0327 34.6044 41.9301 34.6044 41.9301L30.8855 37.6871C30.8855 37.6871 33.418 42.9239 31.7496 45.8025C30.6615 47.6799 26.9604 54.5199 26.9604 54.5199C26.9604 54.5199 24.073 45.9774 24.9881 43.6678C25.5068 42.3585 27.5517 40.8969 27.5517 40.8969C27.5517 40.8969 25.1715 38.94 24.3118 37.3166C22.6515 34.1814 23.5509 26.3354 23.5509 26.3354C23.5509 26.3354 26.5757 27.6223 27.9272 29.081C29.2786 30.5397 30.4722 33.8058 30.4722 33.8058C30.4722 33.8058 29.1109 27.8097 29.4202 23.9262C29.8902 18.0255 34.8198 9.43432 34.8198 9.43432Z" fill="black" stroke="black"/>
</svg>
