<svg width="128" height="128" viewBox="0 0 128 128" fill="none" xmlns="http://www.w3.org/2000/svg">
<g clip-path="url(#clip0_53_690)">
<path d="M33.5 25.3519C31 27.3519 34.4721 27.5321 35 28.8519C36 31.3519 33.151 35.0345 31 38.3519C29.4207 40.7875 28.8161 43.6479 26 44.3519C24 44.8519 21 41.8519 20.5 43.3519C19.8675 45.2493 15.5 42.564 15.5 40.8519C15.5 38.8519 12 38.3519 12 38.3519C12 38.3519 12.0237 35.914 13 34.3519C13.9763 32.7898 17 30.3519 17 30.3519C17 30.3519 14.1597 30.6213 12.5 31.5C10.8403 32.3787 9 34.3519 9 34.3519C11.9289 31.2277 10 29.5 16 26.8519C18.6504 24.2267 22 20.8519 23 19.8519C24.5743 18.2777 28 18.8519 28.5 21.8519C30.5 21.3519 34.6015 24.4707 33.5 25.3519Z" fill="black" stroke="black"/>
</g>
<defs>
<clipPath id="clip0_53_690">
<rect width="128" height="128" fill="white"/>
</clipPath>
</defs>
</svg>
