<svg width="128" height="128" viewBox="0 0 128 128" fill="none" xmlns="http://www.w3.org/2000/svg">
<g clip-path="url(#clip0_53_693)">
<g clip-path="url(#clip1_53_693)">
<path d="M17.973 52C24.9451 56.2362 27.973 66.5 27.973 66.5C27.973 66.5 23.8164 51.319 25.8712 50.6934C28.4864 49.8973 30.473 54.5 30.473 54.5C30.473 54.5 32.13 50.5815 33.2813 47.9384C34.061 46.1482 35.1912 44.0074 36.1427 43.8381C37.0943 43.6688 36.1427 49.5 36.1427 49.5C36.1427 49.5 45.6826 35.9859 44.973 31.5C44.0717 25.802 34.473 19.5 34.473 19.5C34.473 19.5 40.352 25 38.973 31.5C37.5941 38 32.4053 36.9619 32.4053 36.9619C32.4053 36.9619 33.4797 29.972 31.473 25C29.4663 20.028 22.0429 9 22.0429 9C22.0429 9 17.973 21.5 17.973 28.5C17.973 35.5 25.8712 44.5 25.8712 44.5C25.8712 44.5 14.5009 46 11.973 39.5C9.44512 33 13.973 27 13.973 27C13.973 27 9.12652 32.2905 8.97303 39.5C8.81953 46.7095 13.5928 49.3386 17.973 52Z" fill="black" stroke="black"/>
</g>
</g>
<defs>
<clipPath id="clip0_53_693">
<rect width="128" height="128" fill="white"/>
</clipPath>
<clipPath id="clip1_53_693">
<rect width="128" height="128" fill="white"/>
</clipPath>
</defs>
</svg>
