<svg width="128" height="128" viewBox="0 0 128 128" fill="none" xmlns="http://www.w3.org/2000/svg">
<g clip-path="url(#clip0_53_696)">
<path d="M27.5 49.5C31.186 49.8734 36 48.5 36 48.5C36 48.5 33.673 44.6889 35 43C36.6889 40.8505 43.5 43.5 43.5 43.5C43.5 43.5 40.0685 39.3264 39.5 36.5C39.1149 34.5857 38.8166 32.1834 39.5 31.5C40.1834 30.8166 43 31 43 31C43 31 41.1491 22.7726 38 19.5C34 15.3431 20 13 20 13C20 13 28.6761 18.9616 29.75 21.5L32.5 28C32.5 28 27.991 23.4289 23.5 20.5C19.009 17.5711 8 11 8 11C8 11 13.8877 21.7161 17.5 26.5C21.1123 31.2839 30.5 38.5 30.5 38.5C30.5 38.5 24.4289 36.4645 21.5 35C18.5711 33.5355 10.5 23.5 10.5 23.5C10.5 23.5 12.5 36 16.5 42C20.5 48 22.4007 48.9834 27.5 49.5Z" fill="black" stroke="black"/>
</g>
<defs>
<clipPath id="clip0_53_696">
<rect width="128" height="128" fill="white"/>
</clipPath>
</defs>
</svg>
