<svg width="128" height="128" viewBox="0 0 128 128" fill="none" xmlns="http://www.w3.org/2000/svg">
<g clip-path="url(#clip0_53_699)">
<path d="M30.5 24.7922C34.2465 27.2063 35.5 30.2922 35.5 33.7922C35.5 40.1494 32 45.7922 32 45.7922C32 45.7922 28.3747 50.6427 28 54.2922C27.6751 57.4563 29.5293 62.2922 29.5293 62.2922L27 60.2922L26.5 64.7922L25 61.2922L21.5 64.7922L22.5 60.2922C22.5 60.2922 19.6479 62.5111 17.5 63.2922C15.3521 64.0732 7.5 61.2922 7.5 61.2922C7.5 61.2922 16.7355 61.5567 19 59.2922C20.5 57.7922 20.5 56.2922 20 53.7922C19.7084 52.334 19.6608 52.4505 18.5 52.2922C16.4162 52.008 18.9526 53.0111 17 53.7922C14.5 54.7922 7 48.2922 9.5 45.7922C10.3841 44.9081 11.0259 45.4491 11.5 44.2922C12.2624 42.432 9.24721 42.2873 9 40.2922C8.77863 38.5056 10 36.7922 10 36.7922C10 36.7922 7.5621 37.0851 6 36.7922C4.4379 36.4993 1 33.2922 1 33.2922C1 33.2922 7 36.9038 11 33.2922C14.0157 30.5692 16.4476 26.2507 19 24.7922C22.5 22.7922 26.2324 22.0423 30.5 24.7922Z" fill="black" stroke="black"/>
</g>
<defs>
<clipPath id="clip0_53_699">
<rect width="128" height="128" fill="white"/>
</clipPath>
</defs>
</svg>
