<svg width="128" height="128" viewBox="0 0 128 128" fill="none" xmlns="http://www.w3.org/2000/svg">
<path d="M20 60.0351C19.4864 56.4026 22 52.0351 22 52.0351C22 52.0351 18.7191 46.6251 17.5 43.0351C16.0559 38.7826 16.5 32.5351 16.5 32.5351C16.5 32.5351 13.8297 29.2631 13 27.0351C12.0826 24.5716 11 17.0351 11 17.0351C11 17.0351 14.3521 24.3635 16.5 25.5351C18.6479 26.7067 19 26.5351 19 26.5351C19 26.5351 17 22.0351 14 17.5351C11 13.0351 11.2323 4.38065 11.5 5.03512C16 16.0351 21.5 14.0351 26.5 24.0351C26.5 24.0351 26.3787 19.1475 25.5 15.5351C24.6213 11.9228 19 5.53512 19 5.53512C19 5.53512 28.4497 10.9228 30.5 14.5351C32.5503 18.1475 30.8316 20.6307 32.5 24.0351C33.5489 26.1754 36.946 25.6937 36.5 28.0351C34.5 38.5351 31.389 35.2659 31 39.5351C30.5556 44.4121 34.1481 45.3575 34.5 49.5351C34.7507 52.5115 34.5 56.5351 34.5 56.5351L28.5 49.0351C28.5 49.0351 31.1983 55.9728 32 61.0351C32.8246 66.2423 32.5 75.0351 32.5 75.0351L25.5 57.5351L23 68.0351C23 68.0351 20.5041 63.6001 20 60.0351Z" fill="black" stroke="black"/>
</svg>
