<svg width="128" height="128" viewBox="0 0 128 128" fill="none" xmlns="http://www.w3.org/2000/svg">
<path d="M50 15.7677C56.1127 12.7113 64.5 20.5 64.5 20.5V33.2677L60.5 31.2677L63.5 35.7677C63.5 35.7677 59.2836 34.5908 56.5 33.7677C53.0473 32.7466 50.6674 30.5003 47.5 30.7677C42.8874 31.1571 38 32.0814 38 36.7677C38 41.454 40 44.2677 39 50.2677C38 56.2677 31.9407 55.1278 31.5 60.2677C31.1561 64.2784 34.6392 66.2933 34 70.2677C33.4729 73.545 30 77.7677 30 77.7677L31.5 81.7677L29 80.2677L28 82.7677C28 82.7677 27.5361 81.2117 26.5 80.7677C25.4639 80.3236 24.5 80.2677 24.5 80.2677L23.5 81.7677L22 80.2677L19.5 81.7677L11 80.2677C11 80.2677 22.6179 78.072 23.5 74.2677C24.5409 69.7784 18.1006 69.0891 16.5 64.7677C11.5 51.2677 21.872 58.5688 22 53.7677C22.1466 48.2675 13.5 53.2677 15.5 41.2677C17.2418 30.817 24.0663 38.8139 25.5 34.2677C26.8558 29.9684 19.5981 27.0825 22 23.2677C30.5 9.76767 38 21.7677 50 15.7677Z" fill="black" stroke="black"/>
</svg>
