<svg width="128" height="128" viewBox="0 0 128 128" fill="none" xmlns="http://www.w3.org/2000/svg">
<path d="M37 20.3632C46.833 14.7444 63.5 17.8632 63.5 17.8632V27.8632C63.5 27.8632 55.4386 31.7986 51 35.3632C46.0433 39.344 40 47.3632 40 47.3632V35.3632C40 35.3632 36.4645 45.248 35 52.8632C33.5355 60.4785 33.1646 68.5967 34 77.3632C34.9033 86.8422 40 98.8632 40 98.8632L33.5 98.8632L30.5 95.8632L30.8125 98.8632H29.5L28 92.8632L25 97.3632L21.875 97.1132L23 94.3632L18.2988 97.1132L12 96.8632L15 90.3632L6 92.8632C6 92.8632 18.5 84.3632 21.5 77.3632C25.8732 67.1591 24.5 60.3632 25 44.3632C25.3283 33.8586 30 24.3632 37 20.3632Z" fill="black" stroke="black"/>
</svg>
