<svg width="128" height="128" viewBox="0 0 128 128" fill="none" xmlns="http://www.w3.org/2000/svg">
<path d="M37.2696 21.3689C47.1881 15.7406 64 18.8647 64 18.8647V28.8814C64 28.8814 55.8685 32.8233 51.3913 36.3939C46.3915 40.3813 40.2957 48.414 40.2957 48.414V36.3939C40.2957 36.3939 36.7294 46.2952 35.2522 53.9231C33.775 61.5511 33.4008 69.6828 34.2435 78.4641C35.1547 87.9589 40.2957 100 40.2957 100H29.7043L28.1913 93.99L25.1652 98.4975L12.5565 97.4958L15.0783 91.4858L6 93.99C6 93.99 18.6087 85.4758 21.6348 78.4641C26.046 68.2429 24.6609 61.4357 25.1652 45.409C25.4963 34.8868 30.2087 25.3755 37.2696 21.3689Z" fill="black" stroke="black"/>
</svg>
