<svg width="128" height="128" viewBox="0 0 128 128" fill="none" xmlns="http://www.w3.org/2000/svg">
<path d="M33.5345 6.12828C33.5345 6.12828 40.5283 18.2895 40.8798 27.4601C41.0302 31.3819 36.7611 40.4807 36.7611 40.4807L33.5742 34.2885C33.5742 34.2885 34.4995 40.0984 34.5456 43.2359C34.5916 46.3735 33.9718 51.8482 33.9718 51.8482L29.2936 45.8179C29.2936 45.8179 32.5301 53.2273 30.5348 57.2507C29.2335 59.8747 24.8169 69.4391 24.8169 69.4391C24.8169 69.4391 21.0712 57.3726 22.1498 54.1375C22.7612 52.3038 25.2516 50.2802 25.2516 50.2802C25.2516 50.2802 22.2738 47.4883 21.1784 45.1901C19.063 40.7519 20.0025 29.7267 20.0025 29.7267C20.0025 29.7267 23.7607 31.5864 25.459 33.6607C27.1573 35.7351 28.6999 40.35 28.6999 40.35C28.6999 40.35 26.8914 31.891 27.1889 26.4318C27.6408 18.1369 33.5345 6.12828 33.5345 6.12828Z" fill="black" stroke="black"/>
</svg>
