<svg width="128" height="128" viewBox="0 0 128 128" fill="none" xmlns="http://www.w3.org/2000/svg">
<path d="M67 29.9766C66.6218 34.9404 66.0581 37.7484 64.5 42.4766C63.9778 44.0611 63 46.4766 63 46.4766L61.5 40.4766L60 34.4766L59 38.9766L55.5 33.4766V36.9766C55.5 36.9766 50.4597 34.5288 47 34.4766C43.3526 34.4215 40.9548 34.8376 38 36.9766C33.8242 39.9994 32.5 48.9766 32.5 48.9766L31 43.9766C31 43.9766 30.5858 49.0476 30 51.9766C29.4142 54.9055 27.5 59.9766 27.5 59.9766C27.5 59.9766 27.5976 57.5387 27.5 55.9766C27.4024 54.4145 27 51.9766 27 51.9766C27 51.9766 25.8787 52.4766 25 52.4766C24.1213 52.4766 22 51.9766 22 51.9766C22 51.9766 23.4142 51.0623 24 50.4766C24.5858 49.8908 25 48.9766 25 48.9766C25 48.9766 22.5621 48.9647 21 48.4766C19.4379 47.9884 16.5 46.4766 16.5 46.4766C16.5 46.4766 18.7746 45.819 20 44.9766C21.1378 44.1944 22.5 42.4766 22.5 42.4766H12C12 42.4766 18.8758 41.0268 22 38.9766C25.1242 36.9263 29 31.9766 29 31.9766L20 35.4766C20 35.4766 19 35.4766 23 30.4766C27 25.4766 32.5 21.9766 32.5 21.9766L22 25.4766C22 25.4766 32.1636 17.422 36.5 15.9766C41 14.4766 45 14.9766 45 14.9766L39 9.97656C39 9.97656 43.5 7.47656 49 10.4766C52.9165 12.6128 56.5 15.9766 56.5 15.9766L55.5 10.4766C55.5 10.4766 59.5938 11.4529 63 15.9766C64.6939 18.2262 66.1417 19.2944 67 21.9766C67.9522 24.9521 67.2373 26.8614 67 29.9766Z" fill="black" stroke="black"/>
</svg>
