<svg width="128" height="128" viewBox="0 0 128 128" fill="none" xmlns="http://www.w3.org/2000/svg">
<path d="M64 28.9766C63.6218 33.9404 63.0581 36.7484 61.5 41.4766C60.9778 43.0611 60 45.4766 60 45.4766L58.5 39.4766L57 33.4766L56 37.9766L52.5 32.4766V35.9766C52.5 35.9766 47.4597 33.5288 44 33.4766C40.3526 33.4215 37.9548 33.8376 35 35.9766C30.8242 38.9994 29.5 47.9766 29.5 47.9766L28 42.9766C28 42.9766 27.5858 48.0476 27 50.9766C26.4142 53.9055 24.5 58.9766 24.5 58.9766C24.5 58.9766 24.5976 56.5387 24.5 54.9766C24.4024 53.4145 24 50.9766 24 50.9766C24 50.9766 22.8787 51.4766 22 51.4766C21.1213 51.4766 19 50.9766 19 50.9766C19 50.9766 20.4142 50.0623 21 49.4766C21.5858 48.8908 22 47.9766 22 47.9766C22 47.9766 19.5621 47.9647 18 47.4766C16.4379 46.9884 13.5 45.4766 13.5 45.4766C13.5 45.4766 15.7746 44.819 17 43.9766C18.1378 43.1944 19.5 41.4766 19.5 41.4766H9C9 41.4766 15.8758 40.0268 19 37.9766C22.1242 35.9263 26 30.9766 26 30.9766L17 34.4766C17 34.4766 16 34.4766 20 29.4766C24 24.4766 29.5 20.9766 29.5 20.9766L19 24.4766C19 24.4766 29.1636 16.422 33.5 14.9766C38 13.4766 42 13.9766 42 13.9766L36 8.97656C36 8.97656 40.5 6.47656 46 9.47656C49.9165 11.6128 53.5 14.9766 53.5 14.9766L52.5 9.47656C52.5 9.47656 56.5938 10.4529 60 14.9766C61.6939 17.2262 63.1417 18.2944 64 20.9766C64.9522 23.9521 64.2373 25.8614 64 28.9766Z" fill="black" stroke="black"/>
</svg>
