<svg width="128" height="128" viewBox="0 0 128 128" fill="none" xmlns="http://www.w3.org/2000/svg">
<path d="M67.4798 32.8421C67.0708 38.3285 66.4612 41.4321 64.7762 46.6579C64.2115 48.4092 63.154 51.0789 63.154 51.0789L61.5318 44.4474L59.9096 37.8158L58.8282 42.7895L55.0431 36.7105V40.5789C55.0431 40.5789 49.5922 37.8736 45.8508 37.8158C41.9063 37.7549 39.3132 38.2148 36.1177 40.5789C31.6018 43.92 30.1697 53.8421 30.1697 53.8421L28.5476 48.3158C28.5476 48.3158 28.0996 53.9207 27.4661 57.1579C26.8326 60.3951 24.7625 66 24.7625 66C24.7625 66 24.8681 63.3055 24.7625 61.5789C24.6569 59.8524 24.2218 57.1579 24.2218 57.1579C24.2218 57.1579 23.0091 57.7105 22.0589 57.7105C21.1086 57.7105 18.8145 57.1579 18.8145 57.1579C18.8145 57.1579 20.3439 56.1474 20.9774 55.5C21.6109 54.8526 22.0589 53.8421 22.0589 53.8421C22.0589 53.8421 19.4224 53.829 17.7331 53.2895C16.0437 52.7499 12.8665 51.0789 12.8665 51.0789C12.8665 51.0789 15.3264 50.3522 16.6516 49.4211C17.882 48.5565 19.3552 46.6579 19.3552 46.6579H8C8 46.6579 15.4358 45.0555 18.8145 42.7895C22.1932 40.5234 26.3847 35.0526 26.3847 35.0526L16.6516 38.9211C16.6516 38.9211 15.5702 38.9211 19.896 33.3947C24.2218 27.8684 30.1697 24 30.1697 24L18.8145 27.8684C18.8145 27.8684 29.2262 19.9462 33.9548 18.4737C37.0907 17.4972 42.0657 17.3684 42.0657 17.3684L32.3326 3C32.3326 3 42.0657 7.97368 48.0137 11.2895C52.2492 13.6506 56.1246 17.3684 56.1246 17.3684L55.0431 11.2895C55.0431 11.2895 59.4704 12.3686 63.154 17.3684C64.9859 19.8549 66.5516 21.0355 67.4798 24C68.5095 27.2888 67.7365 29.399 67.4798 32.8421Z" fill="black" stroke="black"/>
</svg>
