<svg width="128" height="128" viewBox="0 0 128 128" fill="none" xmlns="http://www.w3.org/2000/svg">
<path d="M65.5 29C65.1218 33.9638 64.5581 36.2719 63 41C62.4778 42.5845 61.5 46 61.5 46C61.5 46 59.0858 41.3431 58.5 39L57 33L56 37.5L52.5 32V35.5C52.5 35.5 47.4597 33.0523 44 33C40.3526 32.9449 37.9548 33.361 35 35.5C30.8242 38.5228 29.5 47.5 29.5 47.5L28 42.5C28 42.5 27.5858 47.5711 27 50.5C26.4142 53.4289 24.5 58.5 24.5 58.5C24.5 58.5 24.5976 56.0621 24.5 54.5C24.4024 52.9379 24 50.5 24 50.5C24 50.5 22.8787 51 22 51C21.1213 51 19 50.5 19 50.5C19 50.5 20.4142 49.5858 21 49C21.5858 48.4142 22 47.5 22 47.5C22 47.5 19.5621 47.4882 18 47C16.4379 46.5118 13.5 45 13.5 45C13.5 45 15.7746 44.3425 17 43.5C18.1378 42.7178 19.5 41 19.5 41H9C9 41 15.8758 38.5503 19 36.5C22.1242 34.4497 26 30.5 26 30.5H16C16 30.5 19.364 26.4526 22 24.5C24.636 22.5474 29.5 20.5 29.5 20.5H22C22 20.5 27.6275 15.8323 32 14.5C34.8997 13.6165 40.5 14.5 40.5 14.5L28 7.5C28 7.5 38.3303 7.23292 44 9C48.2591 10.3275 53.5 14.5 53.5 14.5L50 4C50 4 56.5938 9.97638 60 14.5C61.6939 16.7497 63.1417 17.8179 64 20.5L64.0321 20.6004C64.9697 23.53 65.7347 25.9199 65.5 29Z" fill="black" stroke="black"/>
</svg>
