<svg width="128" height="128" viewBox="0 0 128 128" fill="none" xmlns="http://www.w3.org/2000/svg">
<g clip-path="url(#clip0_53_680)">
<path d="M62 19.6969V45.6969C62 45.6969 55.1717 44.672 51 45.6969C42.4144 47.8062 37.8684 53.0229 34.5 61.1969C30.449 71.0274 34.5 88.6969 34.5 88.6969C34.5 88.6969 32.9882 88.9633 32.5 91.6969C32.2727 92.97 33.1246 95.5514 34.0998 97.9465C35.2187 100.694 36.5 103.197 36.5 103.197C36.5 103.197 34.3787 100.88 33.5 100.197C32.6213 99.5135 31 98.6969 31 98.6969C31 98.6969 29.6953 101.744 29.5 103.697C29.3047 105.65 30 108.697 30 108.697C30 108.697 27.781 102.7 27 98.6969C26.2189 94.6941 26 88.1969 26 88.1969C26 88.1969 24.1597 92.1467 22.5 94.1969C20.8403 96.2472 17.5 98.6969 17.5 98.6969C17.5 98.6969 20.1213 92.4927 21 88.1969C21.8787 83.9012 22 76.6969 22 76.6969L15 82.1969C15 82.1969 18.5318 76.0046 19 72.1969C20.0936 63.3031 19.2606 54.305 21.75 45.6969C24.3584 36.6777 30 33.1969 30 33.1969C30 33.1969 26.855 32.8922 25 32.6969C23.145 32.5017 20.5 32.1969 20.5 32.1969C20.5 32.1969 30.3137 26.9543 35 25.1969C39.6863 23.4396 44.5 23.1969 44.5 23.1969C44.5 23.1969 43.4526 21.8804 41.5 21.1969C39.5474 20.5135 34 19.6969 34 19.6969C34 19.6969 46.644 16.1376 53 17.1969C59 18.1969 62 19.6969 62 19.6969Z" fill="black" stroke="black"/>
</g>
<defs>
<clipPath id="clip0_53_680">
<rect width="128" height="128" fill="white"/>
</clipPath>
</defs>
</svg>
