<svg width="128" height="128" viewBox="0 0 128 128" fill="none" xmlns="http://www.w3.org/2000/svg">
<g clip-path="url(#clip0_53_684)">
<path d="M35.751 33.5162C35.7135 36.1211 34.751 36.0162 33.251 38.5162C30.639 42.8696 27.3564 43.7 25.751 48.5162C23.751 54.5163 23.251 59.5163 25.251 66.0163C27.251 72.5163 29.751 68.9163 29.751 70.5163C29.751 71.8866 24.9831 73.1102 23.6143 71.8627C24.0489 72.9645 24.6686 74.8828 24.251 76.0163C23.8188 77.1894 22.6627 80.3104 22.751 79.5163C23.251 75.0163 19.751 73.0163 19.751 73.0163C19.751 73.0163 15.9177 83.0163 16.251 77.0163C16.5843 71.0163 15.7791 70.892 15.251 71.0163C6.75098 73.0163 3.75098 69.5163 7.75098 70.0163C15.751 71.0163 17.155 67.0365 16.251 62.5163C15.251 57.5163 13.251 57.0163 10.251 51.5162C7.25099 46.0162 6.85316 40.8065 8.25098 34.5162C9.25098 30.0162 13.751 25.789 21.751 26.5162C27.251 27.0162 28.9604 29.3068 29.751 28.5163C30.751 27.5163 31.251 27.0162 30.251 24.5162C28.5815 20.3425 15.251 22.0163 15.251 22.0163C15.251 22.0163 28.4689 19.426 31.751 22.5162C35.3474 25.9025 35.807 29.6261 35.751 33.5162Z" fill="black"/>
<path d="M33.251 38.5162C34.751 36.0162 35.7135 36.1211 35.751 33.5162C35.807 29.6261 35.3474 25.9025 31.751 22.5162C28.4689 19.426 15.251 22.0163 15.251 22.0163C15.251 22.0163 28.5815 20.3425 30.251 24.5162C31.251 27.0162 30.751 27.5163 29.751 28.5163C28.9604 29.3068 27.251 27.0162 21.751 26.5162C13.751 25.789 9.25098 30.0162 8.25098 34.5162C6.85316 40.8065 7.25099 46.0162 10.251 51.5162C13.251 57.0162 15.251 57.5162 16.251 62.5163C17.155 67.0365 15.751 71.0163 7.75098 70.0163C3.75098 69.5162 6.75098 73.0163 15.251 71.0163C15.7791 70.892 16.5843 71.0163 16.251 77.0163C15.9176 83.0163 19.751 73.0163 19.751 73.0163C19.751 73.0163 23.251 75.0162 22.751 79.5163C22.6627 80.3104 23.8188 77.1894 24.251 76.0163C24.8622 74.3571 23.251 71.0163 23.251 71.0163C23.251 73.5162 29.751 72.1163 29.751 70.5163C29.751 68.9163 27.251 72.5162 25.251 66.0163C23.251 59.5163 23.751 54.5162 25.751 48.5162C27.3564 43.7 30.639 42.8696 33.251 38.5162Z" stroke="black"/>
</g>
<defs>
<clipPath id="clip0_53_684">
<rect width="128" height="128" fill="white"/>
</clipPath>
</defs>
</svg>
