<svg width="128" height="128" viewBox="0 0 128 128" fill="none" xmlns="http://www.w3.org/2000/svg">
<g clip-path="url(#clip0_53_687)">
<path d="M38.503 25.6325C40.3031 27.1326 38.503 28.6325 42.003 28.1325C48.5134 27.2025 37.0567 44.3364 32.003 42.6325C29.5137 41.7932 32.003 37.6325 28.503 39.1325C26.6293 39.9355 30.003 34.1325 30.003 34.1325L28.003 35.6325C28.003 35.6325 26.5781 30.7359 25.003 29.6325C23.7021 28.7212 25.753 33.2071 25.503 36.6325C25.2443 40.1777 22.1394 42.7686 22.503 41.1325C23.503 36.6325 17.0758 40.5968 18.503 45.1325C20.0246 49.9681 27.2846 52.6057 25.003 57.1325C24.1928 58.7401 22.003 60.6325 22.003 60.6325C22.003 60.6325 23.2959 59.2064 23.003 58.1325C22.7101 57.0586 20.503 55.1325 20.503 55.1325C20.503 55.1325 20.034 58.9924 19.003 61.1325C17.3081 64.6508 7.00302 67.1325 7.00302 67.1325C7.00302 67.1325 13.2004 62.6137 14.003 59.6325C17.503 46.6325 5.07208 44.5194 5.00302 36.1325C4.94092 28.5905 5.79343 25.0606 11.503 20.1325C16.9882 15.3981 24.7114 12.6827 30.003 17.6325C32.4934 19.962 33.503 25.6325 33.503 25.6325C33.503 25.6325 37.003 24.3825 38.503 25.6325Z" fill="black" stroke="black"/>
</g>
<defs>
<clipPath id="clip0_53_687">
<rect width="128" height="128" fill="white"/>
</clipPath>
</defs>
</svg>
