<svg width="128" height="128" viewBox="0 0 128 128" fill="none" xmlns="http://www.w3.org/2000/svg">
<path d="M19.616 47.6505C22.0203 52.1359 27.1895 61.9631 28.632 65.3883L26.2277 54.3786L32.8395 66C32.8395 66 33.2058 64.8527 33.4406 62.9417C33.6753 61.0308 33.4406 54.3786 33.4406 54.3786C33.4406 54.3786 39.7849 50.8858 42.4566 47.6505C44.9334 44.6512 46.6641 38.4757 46.6641 38.4757C46.6641 38.4757 48.7448 43.0396 50.2705 44.5922C51.7963 46.1449 56.2812 48.8738 56.2812 48.8738C56.2812 48.8738 54.9617 45.5332 55.0791 43.9806C55.1965 42.428 56.2812 40.3107 56.2812 40.3107C56.2812 40.3107 58.7282 44.8891 60.4887 47.0388C62.2492 49.1886 65.2973 51.3204 65.2973 51.3204C65.2973 51.3204 62.6864 45.7958 62.893 43.3689C63.1648 40.1762 66.4994 36.0291 66.4994 36.0291V42.1456C66.4994 42.1456 70.0583 37.7491 73.1112 36.0291C76.1013 34.3446 85.7337 29.301 81.5262 34.8058C78.4964 38.7698 87.1331 29.4553 89.3401 34.1942C90.751 37.2238 100.159 51.932 93.5476 48.8738C94.3627 52.4493 95.7975 56.2578 97.7551 58.6602C100.002 61.4183 103.766 64.165 103.766 64.165L102.564 61.4126L101.361 58.6602C101.361 58.6602 104.644 57.4079 106.17 56.2136C107.696 55.0193 109.175 52.5437 109.175 52.5437C109.175 52.5437 106.376 53.767 104.968 53.767C103.56 53.767 101.361 53.1553 101.361 53.1553C101.361 53.1553 104.146 50.4185 105.569 49.4854C111.223 45.7781 119.995 42.1456 119.995 42.1456C119.995 42.1456 113.297 43.1156 109.776 42.7573C106.255 42.399 101.361 40.3107 101.361 40.3107C101.361 40.3107 107.121 39.0636 110.378 37.2524C114.176 35.1402 118.793 29.9126 118.793 29.9126C118.793 29.9126 113.383 33.5825 108.574 33.5825C105.758 33.5825 99.5583 31.7476 99.5583 31.7476C99.5583 31.7476 109.785 28.4274 114.585 23.7961C118.648 19.8755 123 9.72816 123 9.72816C123 9.72816 117.978 15.2854 114.585 16.4563C109.694 18.144 101.361 16.4563 101.361 16.4563L109.175 7.8932C109.175 7.8932 100.75 12.8475 96.5529 13.3981C89.8864 14.2725 86.0996 9.77731 79.723 9.72816C72.8796 9.6754 62.893 13.3981 62.893 13.3981L70.7069 4.83495C70.7069 4.83495 57.0522 7.76143 50.2705 11.5631C43.4361 15.3944 35.8449 25.6311 35.8449 25.6311C35.8449 25.6311 33.5437 21.487 32.8395 17.068C32.1353 12.649 32.2384 3 32.2384 3C32.2384 3 28.6035 12.0663 27.4299 17.6796C26.2562 23.2929 26.2277 31.7476 26.2277 31.7476C26.2277 31.7476 23.0388 32.0822 22.0203 34.1942C20.9406 36.4329 22.6213 40.3107 22.6213 40.3107C22.6213 40.3107 17.2117 43.165 19.616 47.6505Z" fill="black" stroke="black"/>
</svg>
