<svg width="128" height="128" viewBox="0 0 128 128" fill="none" xmlns="http://www.w3.org/2000/svg">
<path d="M87.6871 41.6973C87.4898 41.1756 87.4232 40.2687 87.5079 39.0067C87.5913 37.7652 87.815 36.2473 88.1471 34.549C88.811 31.1538 89.8977 27.0783 91.1108 23.1273C92.3236 19.1771 93.6592 15.3635 94.8191 12.493C95.3997 11.0563 95.9324 9.86521 96.38 9.01476C96.6044 8.58851 96.8011 8.26001 96.9658 8.03209C97.0482 7.91805 97.1165 7.83845 97.1687 7.78726C97.1971 7.75942 97.2149 7.74613 97.2221 7.74094L97.2783 7.72386C97.335 7.7132 97.3617 7.72807 97.3848 7.74311C97.4464 7.7832 97.5502 7.89464 97.6639 8.1554C97.8904 8.67489 98.055 9.54499 98.1566 10.7223C98.3578 13.056 98.2967 16.371 98.1758 19.9217C98.0554 23.4574 97.8758 27.2209 97.8457 30.4058C97.8306 31.9996 97.8529 33.4602 97.9399 34.6853C98.026 35.8978 98.1778 36.9267 98.4435 37.6292C98.9615 38.9988 100.259 40.5495 101.806 42.0968C103.368 43.6593 105.251 45.2803 107.011 46.7843C108.78 48.297 110.414 49.6839 111.517 50.8024C112.072 51.3649 112.463 51.8302 112.67 52.1883C112.774 52.3677 112.812 52.4875 112.82 52.5553C112.822 52.5727 112.822 52.583 112.821 52.5884L112.781 52.6348L112.752 52.7012L112.665 52.8722C112.433 53.254 112.023 53.5216 111.394 53.6658C110.664 53.8331 109.688 53.8168 108.519 53.6255C106.187 53.2438 103.237 52.1938 100.271 50.8086C97.3105 49.4258 94.3664 47.724 92.0501 46.0611C90.8917 45.2295 89.8989 44.4135 89.1418 43.6582C88.3756 42.8937 87.8873 42.2267 87.6871 41.6973Z" fill="black" stroke="black"/>
<path d="M37.8233 32.5137C37.9737 32.3131 38.1387 31.8918 38.2847 31.2239C38.4264 30.5757 38.5378 29.7591 38.6212 28.8267C38.7879 26.9635 38.8374 24.6789 38.8024 22.4362C38.7675 20.194 38.648 18.0059 38.4779 16.3388C38.3926 15.5036 38.2955 14.8091 38.1927 14.3078C38.1445 14.0726 38.0969 13.8918 38.0531 13.7634L38.0512 13.7644C37.8796 13.9708 37.673 14.3704 37.4427 14.9671C36.9897 16.1407 36.5225 17.8682 36.0472 19.7429C35.5756 21.6033 35.0977 23.6034 34.6298 25.2752C34.3955 26.1125 34.1604 26.8788 33.9262 27.5139C33.6966 28.1369 33.452 28.6776 33.1856 29.0326C32.6753 29.7124 31.7235 30.3465 30.6805 30.9205C29.6187 31.5048 28.3815 32.0694 27.2359 32.5879C26.0777 33.112 25.0242 33.5841 24.2893 33.9953C23.9181 34.203 23.6651 34.3755 23.5242 34.5102C23.5002 34.5333 23.4836 34.5533 23.4711 34.568L23.4715 34.5708L23.4849 34.6407C23.5274 34.8025 23.6488 34.9614 23.9189 35.1118C24.2384 35.2894 24.7178 35.4233 25.344 35.4988C26.5903 35.6492 28.2671 35.551 30.0165 35.2782C31.7602 35.0064 33.5422 34.5667 34.9891 34.0544C35.7128 33.7981 36.3428 33.5266 36.8386 33.2545C37.3457 32.9762 37.6679 32.7207 37.8233 32.5137Z" fill="black" stroke="black"/>
</svg>
