<svg width="128" height="128" viewBox="0 0 128 128" fill="none" xmlns="http://www.w3.org/2000/svg">
<path d="M43.8355 76.7979C44.0898 75.8666 45.1313 75.3992 45.9962 75.8283L54.6683 80.1302C55.2883 80.4377 55.6009 81.1435 55.412 81.8092C55.1699 82.6627 54.2198 83.095 53.4173 82.7167L44.6609 78.589C43.9874 78.2715 43.6393 77.5162 43.8355 76.7979Z" fill="black"/>
<path d="M47.9882 84.1371C47.5151 83.3442 47.8507 82.316 48.7005 81.955L52.8855 80.1772C53.5539 79.8933 54.3291 80.149 54.6975 80.7747C55.1307 81.5107 54.8353 82.4597 54.061 82.8199L49.9383 84.7376C49.2304 85.0669 48.3882 84.8075 47.9882 84.1371Z" fill="black"/>
</svg>
