<svg width="128" height="128" viewBox="0 0 128 128" fill="none" xmlns="http://www.w3.org/2000/svg">
<path d="M95.3548 49.2437C97.7362 51.731 100.875 53.9399 103.5 55.0941C109.5 57.3751 109 57.3751 108 54.8751C109.334 55.2047 115.5 60.3751 112 55.3751C113.132 55.5674 118.883 56.2247 120 56.3751C115 55.3751 110.443 51.213 109 48.8751C105.382 43.0132 107.868 41.2207 102.585 37.1695C97.89 33.8727 89.8624 31.5307 85.5 33C86.0918 35.7067 93.9247 33.3127 101.204 37.7861C101.429 38.2282 87 34.5 90 41.5C83.0716 34.2201 87.3545 41.2309 87.5 41.5C89.9872 45.2664 92.8037 46.7816 95.3548 49.2437Z" fill="black"/>
</svg>
