<svg width="128" height="128" viewBox="0 0 128 128" fill="none" xmlns="http://www.w3.org/2000/svg">
<path d="M43.5 24C51.5998 20.9049 56.8449 20.4742 65.5 21C78.3886 21.7831 87.0143 22.1404 94 33C99.0053 40.781 99.5 47.5 99.5 56.5C99.5 64 95 77 95 77C95 77 96.0549 65.1015 94.5 60C92.6562 53.9506 88.5 42.5 88.5 42.5C88.5 42.5 87.2868 49.4216 85.5 53.5C83.847 57.2729 80 62.5 80 62.5C80 62.5 80.4699 56.3769 80 52.5C79.5156 48.5038 77.5 42.5 77.5 42.5C77.5 42.5 75.5928 45.7927 75 48C74.4338 50.1084 74.5 53.5 74.5 53.5C74.5 53.5 70.9663 49.9975 69 47.5C67.5256 45.6273 65.5 42.5 65.5 42.5C65.5 42.5 62.6055 52.8436 58 57.5C52.2118 63.3522 38.5 65.5 38.5 65.5C38.5 65.5 43.4523 60.1284 45.5 56C47.92 51.1208 49 42.5 49 42.5C49 42.5 40.6845 49.985 37 56C31.7734 64.5326 29.5 80.5 29.5 80.5C29.5 80.5 27.5 65.5 28 57C29.1752 37.022 37 34.5 37 34.5H27C27 34.5 36.3654 26.7263 43.5 24Z" fill="black" stroke="black"/>
</svg>
