<svg width="128" height="128" viewBox="0 0 128 128" fill="none" xmlns="http://www.w3.org/2000/svg">
<path d="M42.2069 21.2068C51.1446 18.0956 56.9323 17.6627 66.4827 18.1912C80.7047 18.9784 90.2227 19.3376 97.931 30.2535C103.454 38.0748 104 44.8288 104 53.8755C104 61.4144 99.0345 74.4818 99.0345 74.4818C99.0345 74.4818 100.198 62.5216 98.4828 57.3936C96.4482 51.3128 91.8621 39.8028 91.8621 39.8028C91.8621 39.8028 90.5234 46.7603 88.5517 50.8599C86.7278 54.6523 82.4827 59.9066 82.4827 59.9066C82.4827 59.9066 83.0013 53.7517 82.4827 49.8547C81.9482 45.8378 79.7241 39.8028 79.7241 39.8028C79.7241 39.8028 77.6196 43.1126 76.9655 45.3314C76.3407 47.4507 76.4138 50.8599 76.4138 50.8599C76.4138 50.8599 72.5145 47.3392 70.3448 44.8288C68.7179 42.9463 66.4827 39.8028 66.4827 39.8028C66.4827 39.8028 63.2888 50.2 58.2069 54.8806C51.8199 60.7633 36.6897 62.9222 36.6897 62.9222C36.6897 62.9222 42.1543 57.5227 44.4138 53.3729C47.0842 48.4684 48.2759 39.8028 48.2759 39.8028C48.2759 39.8028 39.1001 47.3266 35.0345 53.3729C29.2673 61.9498 26.7586 78 26.7586 78C26.7586 78 24.5517 62.9222 25.1034 54.3781C26.4002 34.2964 35.0345 31.7613 35.0345 31.7613H24C24 31.7613 34.3343 23.9473 42.2069 21.2068Z" fill="black" stroke="black"/>
</svg>
