<svg width="128" height="128" viewBox="0 0 128 128" fill="none" xmlns="http://www.w3.org/2000/svg">
<path d="M45.0972 16.2844C45.0972 16.2844 60.2262 15.6446 67.8432 16.2844C80.5387 17.3507 86.5086 17.1243 94.8211 26.415C102.043 34.487 103.708 45.9799 102.756 56.8071C102.139 63.8255 96.937 70.137 96.937 70.137L91.6472 46.1432V59.4731C91.6472 59.4731 84.1968 55.3371 81.0677 52.0084C76.3381 46.9771 73.133 37.0789 73.133 37.0789C73.133 37.0789 71.0828 40.641 69.4302 42.4109C67.7775 44.1808 64.6694 46.1432 64.6694 46.1432V39.7449C64.6694 39.7449 62.6332 45.8833 60.4376 48.276C57.2328 51.7685 47.2131 53.0747 47.2131 53.0747C47.2131 53.0747 50.712 47.9896 51.9739 45.0768C53.1777 42.2984 53.5609 38.6785 53.5609 38.6785C53.5609 38.6785 42.9826 45.6426 38.2205 52.0084C31.8447 60.5314 27.641 84 27.641 84C27.641 84 24.8119 60.5875 26.583 49.8756C27.641 43.4773 30.7436 33.8171 36.1046 28.0146C41.0822 22.6272 50.387 18.4171 50.387 18.4171L45.0972 16.2844Z" fill="black" stroke="black"/>
</svg>
