<svg width="128" height="128" viewBox="0 0 128 128" fill="none" xmlns="http://www.w3.org/2000/svg">
<path d="M30.5175 32.3229C37.9953 21.4427 48.2083 17.2063 61.4409 16.1755C76.9462 14.9677 90.3799 19.9354 98.8745 32.8611C105.535 42.9959 102.13 63.5411 102.13 63.5411C102.13 63.5411 100.92 58.1856 99.417 58.6969C98.0541 59.1605 95.6194 70 95.6194 70C95.6194 70 92.4574 62.4008 91.8218 59.7734C91.1862 57.1459 90.7368 50.085 90.7368 50.085C90.7368 50.085 89.6517 52.7762 89.1092 56.0056C88.6855 58.528 90.1942 64.6176 90.1942 64.6176C90.1942 64.6176 83.5524 56.6521 82.599 52.2379C81.6456 47.8238 81.514 39.8583 81.514 39.8583C81.514 39.8583 74.7187 47.7353 71.7487 53.3144C69.9787 56.6393 69.0361 62.4646 69.0361 62.4646H51.6756C51.6756 62.4646 52.7606 60.3784 52.7606 58.6969C52.7606 57.0153 51.6756 53.8527 51.6756 53.8527C51.6756 53.8527 50.1551 56.3924 49.5056 58.1586C48.9067 59.787 48.4205 62.4646 48.4205 62.4646C48.4205 62.4646 46.8811 59.9315 46.2505 58.1586C45.5314 56.1372 45.1654 52.7762 45.1654 52.7762C45.1654 52.7762 43.9616 56.2668 43.5379 58.1586C43.1141 60.0504 42.9954 62.4646 42.9954 62.4646H35.1289H25.0923C25.0923 62.4646 23.8452 42.0311 30.5175 32.3229Z" fill="black" stroke="black"/>
</svg>
