<svg width="128" height="128" viewBox="0 0 128 128" fill="none" xmlns="http://www.w3.org/2000/svg">
<path d="M42.0485 44.5C44.0726 47 52.0485 53.5 52.0485 53.5C52.0485 53.5 51.5485 49.5 52.0485 47C52.5485 44.5 54.0485 44 54.0485 44C54.0485 44 54.0485 49.5 54.5485 51.5C55.0908 53.6693 57.5485 57 57.5485 57C57.5485 57 58.6561 53.1915 59.0485 51C59.463 48.6856 60.0485 45 60.0485 45C60.0485 45 60.5604 51.0592 61.0485 53.5L63.0485 63.5C63.0485 63.5 67.7178 56.646 68.0485 54C68.5485 50 68.0485 45 68.0485 45C68.0485 45 70.0604 47.5355 70.5485 49C71.0367 50.4645 69.0485 57.5 69.0485 57.5C69.0485 57.5 72.9746 51.8431 74.0485 49.5C75.1224 47.1569 76.0485 42.5 76.0485 42.5C76.0485 42.5 76.5485 46.6569 76.5485 49C76.5485 51.3431 75.0485 54.5 75.0485 54.5C75.0485 54.5 83.3203 49.8303 86.0485 46C89.7384 40.8195 91.3432 37.1018 89.5485 31C87.0485 22.5 76.0485 17 61.0485 17C51.8691 17 37.7525 19.8476 37.0485 29C36.7024 33.5 38.1923 39.7371 42.0485 44.5Z" fill="black" stroke="black"/>
</svg>
