<svg width="128" height="128" viewBox="0 0 128 128" fill="none" xmlns="http://www.w3.org/2000/svg">
<path d="M55.9708 60.7478C56.7364 59.3269 57.1522 66.0609 57.1522 66.0609C57.1522 66.0609 69.8265 58.7217 76.055 53.0734C82.2836 47.4252 89.0507 37.1343 89.0507 37.1343C89.0507 37.1343 98.5022 42.4474 98.5022 60.7478C98.5022 69.6029 96.1393 82 96.1393 82C96.1393 82 105 69.3616 105 60.7478C105 44.2184 102.459 37.5193 94.9579 28.8696C87.2786 20.0145 83.1436 16.4725 63.0594 17.0628C48.5782 17.4885 33.5 22.5 27 39.5C21.1685 54.7516 31.1609 66.0609 23.4816 76.0966C18.9484 82.0209 47.7009 76.0966 55.9708 60.7478Z" fill="black" stroke="black"/>
</svg>
