<svg width="128" height="128" viewBox="0 0 128 128" fill="none" xmlns="http://www.w3.org/2000/svg">
<path d="M77.3945 24.8828C74.8945 20.3828 63.3378 16.7939 54.8945 18.3828C46.449 19.9721 37.5 23 31 30C23.8959 37.6506 28 48.5 25 59.5C22 70.5 10.6744 70.8828 15.8945 70.8828C26.8945 70.8828 12.8945 78.3828 3.39451 74.3828C1.31646 73.5078 7.39449 80.8828 22.8945 80.8828C32.0635 80.8828 41.1233 76.5652 47.8945 70.3828C58.3945 60.7958 60.2815 58.4566 68.8945 47.3828C72.3945 42.8828 73.3945 40.3828 76.3945 35.8828C78.9068 32.1144 79.594 28.8419 77.3945 24.8828Z" fill="black" stroke="black"/>
</svg>
