<svg width="128" height="128" viewBox="0 0 128 128" fill="none" xmlns="http://www.w3.org/2000/svg">
<path d="M84.1645 76.7979C83.9101 75.8666 82.8687 75.3992 82.0038 75.8283L73.3316 80.1302C72.7117 80.4377 72.3991 81.1435 72.5879 81.8092C72.83 82.6627 73.7802 83.095 74.5826 82.7167L83.3391 78.589C84.0126 78.2715 84.3607 77.5162 84.1645 76.7979Z" fill="black"/>
<path d="M80.0119 84.1371C80.485 83.3442 80.1493 82.316 79.2995 81.955L75.1145 80.1772C74.4462 79.8933 73.6709 80.149 73.3026 80.7747C72.8693 81.5107 73.1647 82.4597 73.939 82.8199L78.0617 84.7376C78.7696 85.0669 79.6118 84.8075 80.0119 84.1371Z" fill="black"/>
</svg>
